<svg xmlns="http://www.w3.org/2000/svg" viewBox="0 0 32 32" fill="none">
  <defs>
    <linearGradient id="bg" x1="0%" y1="0%" x2="100%" y2="100%">
      <stop offset="0%" stop-color="#0d4a35"/>
      <stop offset="100%" stop-color="#0a3525"/>
    </linearGradient>
    <linearGradient id="gold" x1="0%" y1="0%" x2="100%" y2="100%">
      <stop offset="0%" stop-color="#d4a017"/>
      <stop offset="100%" stop-color="#b8860b"/>
    </linearGradient>
    <linearGradient id="bookGrad" x1="0%" y1="0%" x2="0%" y2="100%">
      <stop offset="0%" stop-color="#f5f0e8"/>
      <stop offset="100%" stop-color="#e8dfd0"/>
    </linearGradient>
  </defs>
  <rect width="32" height="32" rx="6" fill="url(#bg)"/>
  <!-- Crescent -->
  <path d="M16 4 C19 4, 22 7, 22 10 C22 13, 19 16, 16 16 C18.5 14.5, 20 12.5, 20 10 C20 7.5, 18.5 5.5, 16 4Z" fill="url(#gold)" opacity="0.85"/>
  <!-- Star -->
  <polygon points="16,2.5 16.7,4.5 18.8,4.5 17.1,5.8 17.7,7.8 16,6.5 14.3,7.8 14.9,5.8 13.2,4.5 15.3,4.5" fill="url(#gold)" opacity="0.7"/>
  <!-- Book -->
  <path d="M16 14 L16 24 C16 24, 10 22.5, 7 21.5 C7 21.5, 7 14, 16 14Z" fill="url(#bookGrad)" opacity="0.95"/>
  <path d="M16 14 L16 24 C16 24, 22 22.5, 25 21.5 C25 21.5, 25 14, 16 14Z" fill="#ffffff" opacity="0.9"/>
  <line x1="16" y1="13.5" x2="16" y2="24.5" stroke="#b8860b" stroke-width="0.8" opacity="0.6"/>
</svg>
